<svg width="20" height="19" viewBox="0 0 20 19" fill="none" xmlns="http://www.w3.org/2000/svg">
<path d="M13.3242 11.7656L14.168 16.6992L9.75 14.3672L5.32031 16.6992L6.17578 11.7656L2.58984 8.28516L7.53516 7.55859L9.75 3.08203L11.9648 7.55859L16.9102 8.28516L13.3242 11.7656ZM19.5 7.58203C19.5 7.23047 19.125 7.08984 18.8438 7.04297L12.9609 6.1875L10.3242 0.855467C10.2188 0.632812 10.0195 0.375 9.75 0.375C9.48047 0.375 9.28125 0.632812 9.17578 0.855467L6.53906 6.1875L0.65625 7.04297C0.363281 7.08984 0 7.23047 0 7.58203C0 7.79297 0.152344 7.99219 0.292969 8.14453L4.55859 12.293L3.55078 18.1523C3.53906 18.2344 3.52734 18.3047 3.52734 18.3867C3.52734 18.6914 3.67969 18.9727 4.01953 18.9727C4.18359 18.9727 4.33594 18.9141 4.48828 18.832L9.75 16.0664L15.0117 18.832C15.1523 18.9141 15.3164 18.9727 15.4805 18.9727C15.8203 18.9727 15.9609 18.7031 15.9609 18.3867C15.9609 18.3047 15.9609 18.2344 15.9492 18.1523L14.9414 12.293L19.1953 8.14453C19.3477 7.99219 19.5 7.79297 19.5 7.58203Z" fill="white"/>
</svg>
